<svg width="188" height="120" viewBox="0 0 188 120" xmlns="http://www.w3.org/2000/svg">
<path d="M162.926 43.3458L173.625 37.4021C184.91 29.4406 183.612 20.1661 177.192 14.8158C167.206 6.49477 156.532 -0.731878 139.215 0.550824C107.118 2.92817 91.664 37.4018 92.8527 63.5541C94.0415 89.7065 111.873 118.138 142.781 119.425C172.527 120.665 186.548 88.2939 187.58 69.2935C187.885 63.684 182.912 59.9882 177.295 59.9882H151.633C149.335 59.9882 147.472 61.8509 147.472 64.1488C147.472 66.4466 149.335 68.3094 151.633 68.3094H160.549C162.926 68.3094 168.87 106.349 156.982 108.727C133.553 113.412 110.851 20.1602 128.516 11.2494C135.585 7.68351 143.79 19.2554 153.416 39.7795C155.31 43.817 159.216 45.8194 162.926 43.3458Z"/>
<path d="M72.5805 43.3523L80.2506 38.239C88.1264 32.9886 91.005 22.5306 84.4469 15.7053C76.3767 7.30628 63.7434 -0.72403 46.4256 0.558673C14.3289 2.93602 -1.12508 37.4097 0.0636839 63.562C1.25245 89.7143 19.084 118.145 49.9919 119.433C72.8585 120.386 83.5199 104.625 88.0325 95.6583C88.8663 94.0015 88.0841 91.5471 86.2356 91.7012H80.8317C76.9872 92.0218 75.4964 94.4788 73.7725 97.3199C73.3948 97.9425 73.0058 98.5835 72.5785 99.2245C69.8198 103.362 67.802 104.717 63.0684 105.168C38.1042 107.546 19.084 21.9559 35.7267 11.2572C42.5147 6.89362 52.3131 19.7534 61.9388 40.2775C63.8323 44.315 68.87 45.8259 72.5805 43.3523Z"/>
<defs>
<linearGradient id="paint0_linear_1168_2263" x1="140.215" y1="0.402466" x2="140.215" y2="119.46" gradientUnits="userSpaceOnUse">
<stop stop-color="#35CE6A"/>
<stop offset="1" stop-color="#189945"/>
</linearGradient>
<linearGradient id="paint1_linear_1168_2263" x1="140.215" y1="0.402466" x2="140.215" y2="119.46" gradientUnits="userSpaceOnUse">
<stop stop-color="#35CE6A"/>
<stop offset="1" stop-color="#189945"/>
</linearGradient>
</defs>
</svg>
