<?xml version="1.0" standalone="no"?><!DOCTYPE svg PUBLIC "-//W3C//DTD SVG 1.1//EN" "http://www.w3.org/Graphics/SVG/1.1/DTD/svg11.dtd"><svg t="1730352564552" class="icon" viewBox="0 0 1024 1024" version="1.1" xmlns="http://www.w3.org/2000/svg" p-id="2545" xmlns:xlink="http://www.w3.org/1999/xlink" width="200" height="200"><path d="M64.9 89.9v588.6s226.9 276.8 442.8 276.8 452-275.8 452-275.8V89.9H64.9zM125 657.5V148h258.6L130.3 663.7c-3.5-4-5.3-6.2-5.3-6.2z m383.3 239.6c-92.5 0-187.4-58.7-259.6-118.1l261.2-554.7 261.6 555.6c-74.1 58.9-170.8 117.2-263.2 117.2z m391.3-238.5s-3.1 3.6-8.9 10L636.1 148h263.5v510.6z" fill="#1874E9" p-id="2546"></path><path d="M395.9 587.8V778c0 10.2 8.2 18 18.2 18h194.1c10.2 0 18.5-7.8 18.5-18V587.8c0-10.2-8.3-18.5-18.5-18.5H414.1c-10 0-18.2 8.3-18.2 18.5z" fill="#1874E9" p-id="2547"></path></svg>